<svg xmlns="http://www.w3.org/2000/svg" xmlns:xlink="http://www.w3.org/1999/xlink" width="150" zoomAndPan="magnify" viewBox="0 0 112.5 112.499997" height="150" preserveAspectRatio="xMidYMid meet" version="1.0"><defs><clipPath id="d20497a716"><path d="M 0 70.34375 L 41.660156 70.34375 L 41.660156 112.003906 L 0 112.003906 Z M 0 70.34375 " clip-rule="nonzero"/></clipPath><clipPath id="be668f10f1"><path d="M 30.390625 0 L 111.996094 0 L 111.996094 81.613281 L 30.390625 81.613281 Z M 30.390625 0 " clip-rule="nonzero"/></clipPath><clipPath id="0fb43c7c26"><path d="M 82.292969 0 L 111.996094 0 L 111.996094 29.707031 L 82.292969 29.707031 Z M 82.292969 0 " clip-rule="nonzero"/></clipPath><clipPath id="31e8f18932"><path d="M 50.367188 0.683594 L 111.996094 0.683594 L 111.996094 81.613281 L 50.367188 81.613281 Z M 50.367188 0.683594 " clip-rule="nonzero"/></clipPath><clipPath id="10100e0b7a"><path d="M 108 0.511719 L 111.996094 0.511719 L 111.996094 29.707031 L 108 29.707031 Z M 108 0.511719 " clip-rule="nonzero"/></clipPath></defs><path fill="#f15a24" d="M 70.160156 89.71875 C 65.5 94.378906 60.609375 97.902344 56.503906 99.804688 L 55.539062 81.054688 C 56.445312 80.027344 57.40625 78.996094 58.425781 77.980469 C 67.554688 68.851562 77.582031 64.082031 80.820312 67.320312 C 84.0625 70.5625 79.292969 80.589844 70.160156 89.71875 " fill-opacity="1" fill-rule="nonzero"/><path fill="#e05421" d="M 56.503906 99.804688 L 56.4375 98.535156 C 59.890625 96.511719 63.695312 93.554688 67.355469 89.894531 C 73.84375 83.40625 78.132812 76.464844 78.90625 71.824219 C 79.882812 71.207031 80.855469 70.554688 81.828125 69.878906 C 81.835938 69.996094 81.835938 70.113281 81.835938 70.230469 C 81.839844 74.78125 77.351562 82.527344 70.160156 89.71875 C 65.5 94.378906 60.609375 97.902344 56.503906 99.804688 " fill-opacity="1" fill-rule="nonzero"/><path fill="#f15a24" d="M 22.183594 41.742188 C 17.523438 46.402344 14 51.292969 12.097656 55.398438 L 30.847656 56.363281 C 31.875 55.457031 32.90625 54.496094 33.921875 53.476562 C 43.050781 44.347656 47.820312 34.320312 44.582031 31.082031 C 41.339844 27.839844 31.3125 32.609375 22.183594 41.742188 " fill-opacity="1" fill-rule="nonzero"/><path fill="#ededed" d="M 26.5625 56.140625 L 13.152344 55.453125 L 26.5625 56.140625 " fill-opacity="1" fill-rule="nonzero"/><path fill="#e05421" d="M 30.796875 56.359375 L 26.5625 56.140625 L 13.152344 55.453125 C 15.140625 52.273438 17.875 48.851562 21.179688 45.542969 C 27.851562 38.871094 35 34.527344 39.632812 33.9375 C 34.851562 41.652344 31.828125 49.402344 30.796875 56.359375 " fill-opacity="1" fill-rule="nonzero"/><g clip-path="url(#d20497a716)"><path fill="#f56831" d="M 41 76.640625 L 40.992188 76.648438 C 40.621094 75.234375 39.957031 74.007812 38.980469 73.023438 C 37.996094 72.03125 36.765625 71.359375 35.34375 70.988281 L 35.320312 70.980469 C 35.296875 70.972656 35.277344 70.96875 35.253906 70.964844 C 26.019531 68.601562 15.910156 73.339844 9.753906 80.089844 C 9.515625 80.351562 9.664062 80.671875 9.972656 80.5625 C 10.902344 80.222656 11.792969 79.941406 12.667969 79.710938 C 12.886719 79.652344 12.960938 79.902344 12.777344 80.066406 C 12.183594 80.605469 11.59375 81.167969 11.015625 81.746094 C 1.773438 90.992188 0.203125 108.574219 0 111.589844 C -0.015625 111.832031 0.171875 112.023438 0.417969 112.003906 C 3.421875 111.800781 21.011719 110.234375 30.257812 100.992188 C 30.828125 100.421875 31.375 99.84375 31.90625 99.261719 C 32.070312 99.078125 32.320312 99.15625 32.261719 99.375 C 32.035156 100.230469 31.757812 101.105469 31.425781 102.011719 C 31.3125 102.320312 31.636719 102.472656 31.898438 102.234375 C 38.667969 96.054688 43.417969 85.902344 41 76.640625 " fill-opacity="1" fill-rule="nonzero"/></g><path fill="#fec34c" d="M 34.355469 90.394531 C 32.785156 92.523438 30.933594 94.683594 28.839844 96.777344 C 22.132812 103.484375 12.84375 105.785156 8.109375 106.550781 C 6.359375 106.835938 5.160156 105.636719 5.445312 103.886719 C 6.210938 99.152344 8.511719 89.863281 15.21875 83.15625 C 16.355469 82.019531 17.511719 80.953125 18.671875 79.964844 C 19.542969 79.222656 20.414062 78.527344 21.28125 77.875 C 21.597656 77.640625 21.574219 77.210938 21.246094 77.203125 C 20.292969 77.1875 19.316406 77.214844 18.320312 77.292969 C 18.171875 77.304688 18.15625 77.117188 18.296875 77.023438 C 20.640625 75.394531 23.398438 74.128906 26.019531 73.195312 C 26.113281 73.160156 26.207031 73.128906 26.296875 73.097656 C 30.566406 71.613281 34.710938 72.109375 37.3125 74.550781 C 37.386719 74.625 37.460938 74.695312 37.535156 74.769531 C 37.609375 74.84375 37.6875 74.921875 37.757812 75 C 40.273438 77.6875 40.664062 82.023438 38.957031 86.410156 C 38.914062 86.519531 38.871094 86.625 38.828125 86.734375 C 37.910156 89.015625 36.632812 91.378906 34.976562 93.71875 C 34.878906 93.851562 34.695312 93.835938 34.707031 93.695312 C 34.804688 92.332031 34.839844 90.433594 34.820312 90.203125 C 34.816406 90.148438 34.675781 89.980469 34.5 90.199219 C 34.449219 90.261719 34.40625 90.332031 34.355469 90.394531 " fill-opacity="1" fill-rule="nonzero"/><path fill="#fbefa9" d="M 31.464844 88.675781 C 26.886719 93.257812 20.839844 95.132812 17.773438 95.828125 C 16.6875 96.074219 15.933594 95.316406 16.179688 94.230469 C 16.875 91.167969 18.746094 85.121094 23.328125 80.539062 C 29.726562 74.140625 36.734375 70.777344 38.980469 73.023438 C 41.230469 75.269531 37.863281 82.277344 31.464844 88.675781 " fill-opacity="1" fill-rule="nonzero"/><g clip-path="url(#be668f10f1)"><path fill="#f2f2f2" d="M 94.621094 59.132812 C 80.816406 72.9375 64.679688 80.96875 51.972656 81.554688 C 48.097656 81.734375 44.542969 81.21875 41.472656 79.964844 L 32.027344 70.519531 C 30.765625 67.4375 30.253906 63.867188 30.441406 59.976562 C 31.042969 47.277344 39.070312 31.160156 52.863281 17.371094 C 69.226562 1.007812 95.882812 -0.222656 106.808594 0.0234375 C 107.601562 0.0429688 108.355469 0.238281 109.023438 0.570312 C 109.171875 0.644531 109.320312 0.722656 109.460938 0.808594 C 109.496094 0.832031 109.527344 0.851562 109.5625 0.875 C 110.148438 1.257812 110.65625 1.753906 111.050781 2.328125 C 111.074219 2.363281 111.097656 2.398438 111.117188 2.429688 C 111.636719 3.226562 111.945312 4.171875 111.96875 5.183594 C 112.089844 10.570312 111.851562 19.773438 109.625 29.683594 C 107.328125 39.882812 102.921875 50.832031 94.621094 59.132812 " fill-opacity="1" fill-rule="nonzero"/></g><g clip-path="url(#0fb43c7c26)"><path fill="#f15a24" d="M 100.140625 11.859375 C 94.914062 6.636719 88.566406 3.433594 82.304688 2.375 C 92.21875 0.144531 101.425781 -0.09375 106.808594 0.0273438 C 109.632812 0.09375 111.90625 2.363281 111.96875 5.1875 C 112.09375 10.570312 111.855469 19.78125 109.625 29.695312 C 108.5625 23.433594 105.363281 17.082031 100.140625 11.859375 " fill-opacity="1" fill-rule="nonzero"/></g><path fill="#4d4d4d" d="M 51.972656 81.554688 C 48.097656 81.734375 44.542969 81.21875 41.472656 79.964844 L 32.027344 70.519531 C 30.765625 67.4375 30.253906 63.867188 30.441406 59.976562 C 34.867188 62.128906 39.132812 65.132812 42.949219 68.953125 C 46.796875 72.796875 49.816406 77.09375 51.972656 81.554688 " fill-opacity="1" fill-rule="nonzero"/><g clip-path="url(#31e8f18932)"><path fill="#ececec" d="M 50.492188 81.589844 L 50.492188 81.589844 M 50.492188 81.589844 C 50.980469 81.589844 51.472656 81.578125 51.972656 81.554688 C 53.136719 81.5 54.328125 81.382812 55.546875 81.207031 C 54.328125 81.382812 53.136719 81.5 51.972656 81.554688 C 51.472656 81.578125 50.980469 81.589844 50.492188 81.589844 M 81.828125 69.878906 C 86.199219 66.839844 90.515625 63.238281 94.621094 59.132812 C 99.453125 54.300781 102.964844 48.574219 105.507812 42.617188 C 102.964844 48.574219 99.453125 54.300781 94.621094 59.132812 C 90.515625 63.238281 86.199219 66.839844 81.828125 69.878906 M 105.519531 42.589844 C 105.519531 42.589844 105.519531 42.589844 105.523438 42.589844 C 105.523438 42.589844 105.519531 42.589844 105.519531 42.589844 M 109.625 29.695312 L 109.625 29.6875 C 109.625 29.6875 109.625 29.691406 109.625 29.695312 C 111.5625 21.078125 111.996094 12.996094 111.996094 7.492188 C 111.996094 12.996094 111.5625 21.078125 109.625 29.695312 M 111.96875 5.1875 C 111.96875 5.140625 111.96875 5.089844 111.964844 5.042969 C 111.96875 5.089844 111.96875 5.140625 111.96875 5.1875 M 111.964844 5.039062 C 111.964844 5.039062 111.964844 5.035156 111.964844 5.035156 C 111.964844 5.035156 111.964844 5.039062 111.964844 5.039062 M 111.964844 5.03125 C 111.964844 5.027344 111.964844 5.027344 111.964844 5.027344 C 111.964844 5.027344 111.964844 5.027344 111.964844 5.03125 M 109.460938 0.808594 C 109.445312 0.800781 109.433594 0.792969 109.417969 0.785156 C 109.433594 0.792969 109.445312 0.800781 109.460938 0.808594 M 109.414062 0.78125 L 109.414062 0.78125 " fill-opacity="1" fill-rule="nonzero"/></g><path fill="#e0e0e0" d="M 51.972656 81.554688 C 50.117188 77.714844 47.617188 73.996094 44.507812 70.582031 C 44.523438 70.566406 44.542969 70.554688 44.558594 70.539062 L 46.585938 72.46875 C 48.871094 73.332031 51.429688 73.753906 54.183594 73.753906 C 54.859375 73.753906 55.542969 73.726562 56.238281 73.679688 C 67.859375 72.847656 82.460938 65.121094 94.796875 52.15625 C 102.207031 44.363281 106 34.234375 107.871094 24.84375 L 107.871094 24.851562 C 107.933594 24.546875 107.992188 24.246094 108.046875 23.941406 C 108.773438 25.839844 109.296875 27.769531 109.625 29.6875 C 108.667969 33.9375 107.339844 38.320312 105.523438 42.589844 C 105.519531 42.589844 105.519531 42.589844 105.519531 42.589844 C 105.515625 42.601562 105.511719 42.609375 105.507812 42.617188 C 102.964844 48.574219 99.453125 54.300781 94.621094 59.132812 C 90.515625 63.238281 86.199219 66.839844 81.828125 69.878906 C 80.855469 70.554688 79.882812 71.207031 78.90625 71.824219 C 70.878906 76.9375 62.78125 80.152344 55.546875 81.207031 C 54.328125 81.382812 53.136719 81.5 51.972656 81.554688 M 109.585938 0.890625 C 109.410156 0.777344 109.230469 0.671875 109.039062 0.578125 C 109.167969 0.640625 109.292969 0.710938 109.414062 0.78125 C 109.417969 0.785156 109.417969 0.785156 109.417969 0.785156 C 109.433594 0.792969 109.445312 0.800781 109.460938 0.808594 C 109.496094 0.832031 109.527344 0.851562 109.5625 0.875 C 109.570312 0.882812 109.578125 0.886719 109.585938 0.890625 " fill-opacity="1" fill-rule="nonzero"/><g clip-path="url(#10100e0b7a)"><path fill="#df5321" d="M 109.625 29.695312 C 109.625 29.691406 109.625 29.6875 109.625 29.6875 C 109.296875 27.769531 108.773438 25.839844 108.046875 23.941406 C 109.695312 15.160156 109.695312 7.117188 109.46875 2.351562 C 109.441406 1.71875 109.289062 1.121094 109.039062 0.578125 C 109.230469 0.671875 109.410156 0.777344 109.585938 0.890625 C 109.597656 0.898438 109.609375 0.910156 109.625 0.917969 C 109.65625 0.9375 109.6875 0.960938 109.71875 0.984375 C 109.753906 1.007812 109.789062 1.03125 109.824219 1.058594 C 109.859375 1.085938 109.898438 1.113281 109.9375 1.144531 C 109.964844 1.164062 109.992188 1.1875 110.015625 1.207031 C 110.0625 1.242188 110.101562 1.277344 110.144531 1.316406 C 110.164062 1.332031 110.1875 1.351562 110.207031 1.371094 C 110.253906 1.410156 110.300781 1.453125 110.34375 1.496094 L 110.390625 1.542969 C 110.441406 1.589844 110.492188 1.640625 110.539062 1.691406 L 110.566406 1.722656 C 110.621094 1.785156 110.675781 1.84375 110.730469 1.90625 L 110.734375 1.914062 C 110.863281 2.0625 110.980469 2.222656 111.089844 2.386719 L 111.117188 2.429688 L 111.128906 2.449219 C 111.253906 2.640625 111.367188 2.84375 111.464844 3.050781 L 111.46875 3.058594 C 111.753906 3.660156 111.925781 4.324219 111.964844 5.027344 C 111.964844 5.027344 111.964844 5.027344 111.964844 5.03125 C 111.964844 5.03125 111.964844 5.035156 111.964844 5.035156 C 111.964844 5.035156 111.964844 5.039062 111.964844 5.039062 C 111.964844 5.039062 111.964844 5.039062 111.964844 5.042969 C 111.96875 5.089844 111.96875 5.140625 111.96875 5.1875 C 111.984375 5.894531 111.996094 6.664062 111.996094 7.492188 C 111.996094 12.996094 111.5625 21.078125 109.625 29.695312 " fill-opacity="1" fill-rule="nonzero"/></g><path fill="#474747" d="M 50.492188 81.589844 C 47.222656 81.589844 44.210938 81.070312 41.554688 80 C 41.550781 80 41.546875 79.996094 41.542969 79.996094 C 41.519531 79.984375 41.496094 79.976562 41.472656 79.964844 L 37.378906 75.875 C 39.285156 74.53125 41.761719 72.730469 44.507812 70.582031 C 47.617188 73.996094 50.117188 77.714844 51.972656 81.554688 C 51.472656 81.578125 50.980469 81.589844 50.492188 81.589844 " fill-opacity="1" fill-rule="nonzero"/><path fill="#e0e0e0" d="M 40.351562 66.535156 C 37.234375 63.84375 33.886719 61.652344 30.441406 59.976562 C 31.042969 47.277344 39.070312 31.160156 52.863281 17.371094 C 53.804688 16.425781 54.785156 15.535156 55.792969 14.6875 C 55.734375 14.75 55.671875 14.8125 55.609375 14.875 C 43.292969 27.824219 36.300781 42.769531 36.035156 54.414062 C 35.953125 57.980469 36.5 61.238281 37.722656 64.035156 L 40.351562 66.535156 " fill-opacity="1" fill-rule="nonzero"/><path fill="#474747" d="M 36.113281 74.609375 L 32.027344 70.519531 C 30.933594 67.84375 30.402344 64.804688 30.402344 61.507812 C 30.402344 61.003906 30.414062 60.492188 30.441406 59.976562 C 33.886719 61.652344 37.234375 63.84375 40.351562 66.535156 L 41.386719 67.519531 C 39.234375 70.265625 37.445312 72.71875 36.113281 74.609375 " fill-opacity="1" fill-rule="nonzero"/><path fill="#f15a24" d="M 49.667969 66.371094 C 41.140625 73.628906 33.445312 78.546875 33.445312 78.546875 C 33.445312 78.546875 38.253906 70.992188 45.621094 62.320312 C 52.804688 53.863281 60.726562 49.027344 61.84375 50.144531 C 62.960938 51.261719 58.121094 59.175781 49.667969 66.371094 " fill-opacity="1" fill-rule="nonzero"/><path fill="#f5835b" d="M 36.746094 75.242188 C 36.746094 75.242188 41.488281 69.710938 47.960938 62.859375 C 54.078125 56.390625 59.660156 51.628906 60.296875 51.628906 C 60.316406 51.628906 60.332031 51.636719 60.339844 51.644531 C 60.664062 51.96875 55.804688 57.707031 49.125 64.027344 C 42.386719 70.402344 36.746094 75.242188 36.746094 75.242188 " fill-opacity="1" fill-rule="nonzero"/><path fill="#f15a24" d="M 68.195312 30.796875 C 68.914062 24.023438 74.992188 19.113281 81.769531 19.832031 C 88.546875 20.550781 93.457031 26.628906 92.738281 33.40625 C 92.015625 40.183594 85.9375 45.09375 79.160156 44.375 C 72.386719 43.652344 67.476562 37.574219 68.195312 30.796875 " fill-opacity="1" fill-rule="nonzero"/><path fill="#0071bc" d="M 71.726562 31.171875 C 72.238281 26.347656 76.566406 22.847656 81.394531 23.363281 C 86.222656 23.875 89.71875 28.203125 89.207031 33.03125 C 88.695312 37.859375 84.363281 41.355469 79.539062 40.84375 C 74.710938 40.332031 71.210938 36 71.726562 31.171875 " fill-opacity="1" fill-rule="nonzero"/><path fill="#e05421" d="M 80.476562 40.894531 C 84.914062 40.890625 88.726562 37.542969 89.207031 33.03125 C 89.207031 33.027344 89.207031 33.023438 89.207031 33.019531 C 89.207031 33.023438 89.207031 33.027344 89.207031 33.03125 C 88.726562 37.542969 84.914062 40.894531 80.476562 40.894531 M 89.210938 33.015625 C 89.210938 33.011719 89.210938 33.007812 89.210938 33.007812 C 89.210938 33.011719 89.210938 33.011719 89.210938 33.015625 M 89.210938 33 C 89.210938 33 89.210938 32.992188 89.210938 32.992188 C 89.210938 32.996094 89.210938 32.996094 89.210938 33 M 89.210938 32.984375 C 89.210938 32.984375 89.210938 32.980469 89.210938 32.980469 C 89.210938 32.980469 89.210938 32.984375 89.210938 32.984375 M 89.214844 32.972656 C 89.214844 32.96875 89.214844 32.96875 89.214844 32.96875 C 89.214844 32.96875 89.214844 32.96875 89.214844 32.972656 M 71.726562 31.171875 C 71.757812 30.871094 71.804688 30.574219 71.867188 30.285156 C 71.804688 30.574219 71.757812 30.871094 71.726562 31.171875 " fill-opacity="1" fill-rule="nonzero"/><path fill="#0069af" d="M 80.476562 40.894531 C 80.167969 40.894531 79.851562 40.878906 79.539062 40.84375 C 75.027344 40.363281 71.675781 36.550781 71.675781 32.113281 C 71.675781 31.804688 71.691406 31.488281 71.726562 31.171875 C 71.757812 30.871094 71.804688 30.574219 71.867188 30.285156 C 72.421875 34.097656 75.328125 37.171875 79.125 37.574219 C 79.40625 37.605469 79.683594 37.617188 79.960938 37.617188 C 84.164062 37.617188 87.804688 34.238281 88.285156 29.710938 C 88.34375 29.183594 88.351562 28.667969 88.320312 28.160156 C 89.042969 29.597656 89.382812 31.25 89.214844 32.96875 C 89.214844 32.96875 89.214844 32.96875 89.214844 32.972656 C 89.214844 32.972656 89.214844 32.976562 89.210938 32.980469 C 89.210938 32.980469 89.210938 32.984375 89.210938 32.984375 C 89.210938 32.988281 89.210938 32.988281 89.210938 32.992188 C 89.210938 32.992188 89.210938 33 89.210938 33 C 89.210938 33.003906 89.210938 33.003906 89.210938 33.007812 C 89.210938 33.007812 89.210938 33.011719 89.210938 33.015625 C 89.207031 33.015625 89.207031 33.019531 89.207031 33.019531 C 89.207031 33.023438 89.207031 33.027344 89.207031 33.03125 C 88.726562 37.542969 84.914062 40.890625 80.476562 40.894531 " fill-opacity="1" fill-rule="nonzero"/></svg>